<?xml version="1.0" ?><!DOCTYPE svg  PUBLIC '-//W3C//DTD SVG 1.1//EN'  'http://www.w3.org/Graphics/SVG/1.1/DTD/svg11.dtd'><svg height="512px" style="enable-background:new 0 0 512 512;" version="1.1" viewBox="0 0 512 512" width="512px" xml:space="preserve" xmlns="http://www.w3.org/2000/svg" xmlns:xlink="http://www.w3.org/1999/xlink"><g id="形状_1_9_" style="enable-background:new    ;"><g id="形状_1"><g><path d="M134.173,248.597c-0.02,2.045-0.04,6.134-0.06,8.159     c23.63,0.103,47.24,0.061,70.871,0.019c-0.081-10.974-1.822-22.718-9.295-31.282c-9.597-12.07-26.465-16.321-41.186-13.365     c-16.949,3.501-31.304,18.183-33.532,35.477c-1.721,12.453,0.628,25.96,8.525,36c17.555,22.318,54.895,20.333,73.625,0.489     c-1.641-2.289-3.301-4.578-4.982-6.866c-12.453,11.745-31.75,17.028-47.908,10.388c-19.885-8.24-25.574-36.227-13.79-53.214     c9.84-14.681,32.216-18.568,46.41-8.038c7.067,5.082,10.286,13.587,11.825,21.849     C174.509,248.513,154.321,247.746,134.173,248.597z M476.704,258.617c-14.355-8.524-31.893-6.093-47.241-11.44     c-5.163-1.841-10.995-5.668-10.711-11.864c0.021-7.756,7.512-12.575,14.336-14.052c11.784-2.573,25.555-2.554,35.536,5.102     c4.355,3.219,5.912,8.586,6.724,13.667c3.421,0,6.864-0.019,10.307-0.061c-0.102-9.03-4.8-17.799-12.656-22.414     c-11.26-7.453-25.371-7.291-38.29-6.055c-8.342,1.274-17.09,4.494-22.334,11.441c-6.075,8.704-5.126,22.738,4.374,28.713     c13.28,8.462,29.784,7.004,44.548,10.772c5.972,1.559,12.655,4.675,14.314,11.234c1.236,7.249-4.313,13.812-10.933,15.94     c-12.474,4.29-27.115,4.069-38.859-2.311c-6.338-3.239-9.436-10.021-10.327-16.787c-3.341,0-6.682-0.02-10.003-0.02     c0.507,11.037,6.704,21.707,17.173,25.98c16.297,6.901,36.182,7.064,52.038-1.113     C488.509,288.952,490.189,266.23,476.704,258.617z M104.529,237.115c-0.668-11.806-9.841-22.519-21.727-24.077     c-16.26-4.03-32.722,3.645-44.365,14.7c0.041,3.828,0.061,7.655,0.061,11.48c11.178-10.346,25.838-21.586,42.037-16.968     c8.869,1.843,13.83,10.835,14.072,19.337c0.587,18.71,0.062,37.441,0.263,56.172h10.085     C104.731,277.549,105.521,257.301,104.529,237.115z M378.354,273.197c-10.649,10.287-24.604,20.694-40.336,17.417     c-9.072-1.26-15.408-9.864-15.511-18.753c-0.465-19.318-0.04-38.654-0.183-57.974c-3.342-0.039-6.662-0.059-10.002-0.059     c-0.122,17.271,0.041,34.544-0.083,51.796c-0.261,7.836,0.447,16.179,4.943,22.86c4.921,7.45,13.89,11.077,22.578,11.501     c14.173,1.54,28.104-5.102,37.986-14.922C378.9,281.236,378.173,277.126,378.354,273.197z M381.677,213.929     c0.078,27.944-0.043,55.888,0.06,83.831c3.464,0,6.945-0.021,10.428-0.021c0.021-27.983,0.04-55.969-0.019-83.951     C388.641,213.829,385.158,213.869,381.677,213.929z M26.003,218.404v83.729h9.8c0-27.883,0-55.766-0.02-83.649     C32.524,218.445,29.264,218.425,26.003,218.404z" style="fill-rule:evenodd;clip-rule:evenodd;fill:#5C6064;"/></g></g></g><g id="形状_1_8_" style="enable-background:new    ;"><g id="形状_1_1_"><g><path d="M285.289,217.088c-9.13,9.982-18.567,19.702-27.557,29.808     c0.02,1.68,0.041,4.999,0.061,6.66c1.762-0.021,5.285-0.06,7.047-0.06c12.088-13.365,24.744-26.183,36.792-39.567     C296.227,214.68,289.077,211.764,285.289,217.088z" style="fill-rule:evenodd;clip-rule:evenodd;fill:#EB1552;"/></g></g></g><g id="形状_1_7_" style="enable-background:new    ;"><g id="形状_1_2_"><g><path d="M252.184,246.449c-10.671-10.551-20.513-21.91-31.103-32.541     c-4.454,0.061-8.909,0.104-13.363,0.224c12.635,13.041,25.007,26.343,37.622,39.424c2.349-0.021,4.718-0.039,7.067-0.06     C252.346,251.147,252.264,248.798,252.184,246.449z" style="fill-rule:evenodd;clip-rule:evenodd;fill:#47C6F4;"/></g></g></g><g id="形状_1_6_" style="enable-background:new    ;"><g id="形状_1_3_"><g><path d="M264.859,259.57c-1.781,0.021-5.365,0.041-7.168,0.041     c0,1.559-0.02,4.678-0.02,6.217c8.787,9.858,17.859,19.418,26.668,29.258c3.725,4.859,10.711,1.824,15.894,2.492     C288.632,284.738,276.746,272.144,264.859,259.57z" style="fill-rule:evenodd;clip-rule:evenodd;fill:#6CBE6E;"/></g></g></g><g id="形状_1_5_" style="enable-background:new    ;"><g id="形状_1_4_"><g><path d="M245.299,259.592     c-12.108,12.552-24.056,25.229-35.901,37.986c4.435,0.038,8.87,0.038,13.305,0c9.759-10.651,19.6-21.224,29.583-31.649     c0.021-1.58,0.041-4.719,0.061-6.299C249.997,259.611,247.648,259.611,245.299,259.592z" style="fill-rule:evenodd;clip-rule:evenodd;fill:#FFC423;"/></g></g></g></svg>